<?xml version="1.0" encoding="UTF-8" standalone="no"?>
<svg
   xmlns:dc="http://purl.org/dc/elements/1.1/"
   xmlns:cc="http://creativecommons.org/ns#"
   xmlns:rdf="http://www.w3.org/1999/02/22-rdf-syntax-ns#"
   xmlns:svg="http://www.w3.org/2000/svg"
   xmlns="http://www.w3.org/2000/svg"
   xmlns:sodipodi="http://sodipodi.sourceforge.net/DTD/sodipodi-0.dtd"
   xmlns:inkscape="http://www.inkscape.org/namespaces/inkscape"
   viewBox="0 0 360.00293 359.82001"
   version="1.1"
   id="svg8"
   sodipodi:docname="app.svg"
   width="360.00293"
   height="359.82001"
   inkscape:version="0.92.4 (unknown)">
  <metadata
     id="metadata14">
    <rdf:RDF>
      <cc:Work
         rdf:about="">
        <dc:format>image/svg+xml</dc:format>
        <dc:type
           rdf:resource="http://purl.org/dc/dcmitype/StillImage" />
        <dc:title></dc:title>
      </cc:Work>
    </rdf:RDF>
  </metadata>
  <defs
     id="defs12" />
  <sodipodi:namedview
     pagecolor="#ffffff"
     bordercolor="#666666"
     borderopacity="1"
     objecttolerance="10"
     gridtolerance="10"
     guidetolerance="10"
     inkscape:pageopacity="0"
     inkscape:pageshadow="2"
     inkscape:window-width="1306"
     inkscape:window-height="1145"
     id="namedview10"
     showgrid="false"
     fit-margin-top="0"
     fit-margin-left="0"
     fit-margin-right="0"
     fit-margin-bottom="0"
     inkscape:zoom="0.39333333"
     inkscape:cx="368.13559"
     inkscape:cy="180"
     inkscape:window-x="204"
     inkscape:window-y="448"
     inkscape:window-maximized="0"
     inkscape:current-layer="svg8" />
  <path
     d="M 164.38,0.01 C 72.326,7.9366 0,85.727 0,179.82 c 0,99.36 80.64,180 180,180 99.36,0 180,-80.64 180,-180 0.0394,-5.7835 -0.32391,-11.558 -0.84375,-17.312 -5.278,-32.97 -35.364,-69.688 -85.156,-69.688 -42.028,0 -66.5,26.239 -66.5,57 0,23.005 13,39 34.5,39 34.507,0 42,-40.5 24,-57 24.691,16.056 21.5,40.25 21.5,40.25 0,48.013 -42.982,102.62 -114,102.62 -79.513,0 -119.5,-68.873 -119.5,-123.38 0,-42.34 27.159,-116.53 110.38,-151.31 z"
     id="path4"
     inkscape:connector-curvature="0"
     style="display:inline;fill:#ff0000;fill-opacity:1" />
  <path
     d="m 215,7.76 c -47.529,0 -67,30.306 -67,56 0,31.309 21.085,40.031 34,40.031 20.522,0 33,-17.643 33,-33.469 0,-10.072 -3.0751,-15.166 -3.8438,-16.281 18.625,13.5 23.812,29.812 23.812,29.812 0,0 9.0393,-8.0312 38.625,-8.0312 17.564,0 45.875,4.2188 68.375,25.969 -25.695,-55 -80.252,-94.031 -126.97,-94.031 z m -141.5,122 c 0,0 -3.5625,10.311 -3.5625,26.062 0,55.284 43.772,103.5 105.06,103.5 44.658,0 80.969,-28 95.969,-65.5 0.458,-1.9628 -7.7443,11 -29.75,11 -22.522,0 -34.719,-14.031 -34.719,-14.031 0,0 -17.749,14.969 -48.5,14.969 -56.612,0 -84.5,-48.138 -84.5,-76 z"
     id="path6"
     inkscape:connector-curvature="0"
     style="display:inline;fill:#2c9eda" />
</svg>
